<?xml version="1.0" standalone="no"?>
<!DOCTYPE svg PUBLIC "-//W3C//DTD SVG 20010904//EN"
 "http://www.w3.org/TR/2001/REC-SVG-20010904/DTD/svg10.dtd">
<svg version="1.0" xmlns="http://www.w3.org/2000/svg"
 width="260.000000pt" height="260.000000pt" viewBox="0 0 260.000000 260.000000"
 preserveAspectRatio="xMidYMid meet">
<metadata>
Created by potrace 1.11, written by Peter Selinger 2001-2013
</metadata>
<g transform="translate(0.000000,260.000000) scale(0.100000,-0.100000)"
fill="#000000" stroke="none">
<path d="M1225 2509 c-53 -10 -173 -47 -190 -59 -5 -3 -32 -15 -60 -24 -27
-10 -88 -38 -134 -62 -45 -24 -87 -41 -92 -38 -5 2 -21 -4 -36 -14 -16 -11
-50 -32 -76 -46 -26 -15 -63 -41 -82 -57 -19 -17 -39 -28 -44 -25 -12 8 -148
-125 -187 -184 -17 -25 -59 -99 -93 -165 -35 -66 -67 -122 -70 -125 -38 -27
-97 -355 -94 -520 1 -46 -1 -59 -7 -45 -13 27 -2 -90 16 -178 30 -146 116
-311 203 -390 22 -20 48 -51 57 -69 9 -18 47 -63 84 -99 56 -55 90 -78 209
-137 354 -177 700 -230 1022 -158 327 74 628 286 765 537 62 113 77 154 99
279 9 52 21 117 27 144 14 66 3 252 -23 380 -41 206 -101 355 -210 519 -202
303 -463 490 -747 532 -107 16 -259 18 -337 4z m480 -424 c53 -22 77 -57 73
-106 -3 -38 -7 -45 -31 -54 -26 -9 -31 -6 -63 32 -42 50 -70 57 -207 45 -90
-8 -102 -12 -153 -47 -126 -87 -144 -225 -37 -288 19 -11 69 -21 138 -27 120
-12 142 -20 156 -57 13 -35 7 -41 -196 -193 -327 -244 -467 -429 -469 -620 -2
-142 31 -175 169 -174 74 0 106 6 185 33 110 37 229 102 330 178 59 44 75 51
91 43 29 -16 23 -33 -26 -79 -102 -94 -334 -223 -460 -255 -77 -20 -193 -31
-237 -22 -54 10 -110 64 -132 128 -15 44 -18 76 -14 154 4 98 4 100 63 212 33
63 83 143 110 180 49 65 184 181 348 300 42 30 77 60 77 66 0 6 -35 19 -78 29
-142 32 -209 95 -219 207 -7 77 13 133 72 192 69 70 181 121 310 141 46 8 166
-3 200 -18z"/>
</g>
</svg>
