<?xml version="1.0" encoding="UTF-8" standalone="no"?>
<!-- Created with Inkscape (http://www.inkscape.org/) -->

<svg
   xmlns:dc="http://purl.org/dc/elements/1.1/"
   xmlns:cc="http://creativecommons.org/ns#"
   xmlns:rdf="http://www.w3.org/1999/02/22-rdf-syntax-ns#"
   xmlns:svg="http://www.w3.org/2000/svg"
   xmlns="http://www.w3.org/2000/svg"
   xmlns:sodipodi="http://sodipodi.sourceforge.net/DTD/sodipodi-0.dtd"
   xmlns:inkscape="http://www.inkscape.org/namespaces/inkscape"
   width="260"
   height="260"
   viewBox="0 0 260 260"
   id="svg4321"
   version="1.1"
   inkscape:version="0.91 r13725"
   sodipodi:docname="favicon.svg"
   inkscape:export-filename="/Users/rug/sites/earthlingemma/images/favicon.png"
   inkscape:export-xdpi="90"
   inkscape:export-ydpi="90">
  <defs
     id="defs4323" />
  <sodipodi:namedview
     id="base"
     pagecolor="#ffffff"
     bordercolor="#666666"
     borderopacity="1.0"
     inkscape:pageopacity="0.0"
     inkscape:pageshadow="2"
     inkscape:zoom="1.5148403"
     inkscape:cx="129.59874"
     inkscape:cy="130.54065"
     inkscape:document-units="px"
     inkscape:current-layer="layer1"
     showgrid="false"
     units="px"
     inkscape:window-width="1280"
     inkscape:window-height="755"
     inkscape:window-x="0"
     inkscape:window-y="0"
     inkscape:window-maximized="1" />
  <metadata
     id="metadata4326">
    <rdf:RDF>
      <cc:Work
         rdf:about="">
        <dc:format>image/svg+xml</dc:format>
        <dc:type
           rdf:resource="http://purl.org/dc/dcmitype/StillImage" />
        <dc:title></dc:title>
      </cc:Work>
    </rdf:RDF>
  </metadata>
  <g
     inkscape:label="Layer 1"
     inkscape:groupmode="layer"
     id="layer1"
     transform="translate(0,-792.36216)">
    <g
       inkscape:label="Layer 1"
       id="layer1-6"
       style="display:inline"
       transform="translate(-244.01556,149.07655)" />
    <g
       id="g5887"
       transform="matrix(0.8366023,0,0,0.8366023,-116.78239,793.09618)">
      <g
         transform="translate(-57.022827,-203.86234)"
         style="display:inline"
         id="layer1-9"
         inkscape:label="Layer 1" />
      <g
         transform="translate(-57.022827,-203.86234)"
         inkscape:label="Layer 2"
         id="layer2">
        <g
           transform="matrix(1.0115938,0,0,1.0115938,96.004112,-5.5507121)"
           id="g17575">
          <path
             id="path17577"
             d="m 217.882,111.722 -23.663,40.764 2.002,-41.457 C 198.135,81.736 186.885,50.307 171.347,22.287 L 207.803,7.503 c 15.431,33.405 18.79,69.598 10.079,104.219 z"
             style="fill:none"
             inkscape:connector-curvature="0" />
          <path
             id="path17579"
             d="m 369.369,341.352 c 0,86.86 -73.02,157.28 -163.1,157.28 -90.07,0 -163.1,-70.42 -163.1,-157.28 0,-25.35 15.77,-58.49 32.11,-86.02 16.08,-27.12 30.38,-55.23 41.62,-84.53 6.72,-17.51 18.81,-32.51 34.35,-43.14 15.54,-10.62 34.53,-16.86 55.02,-16.86 2.36,0 4.7,0.08 7.02,0.25 37.94,2.66 69.69,26.74 82.36,59.75 11.24,29.3 25.53,57.41 41.62,84.53 5.9,9.94 11.72,20.61 16.75,31.38 8.91,19.06 15.35,38.44 15.35,54.64 z"
             style="fill:none;fill-opacity:1"
             inkscape:connector-curvature="0" />
          <path
             id="path17583"
             d="m 354.019,286.712 c -34.86,-4.86 -68.43,-20.93 -94.86,-48.13 -34.3,-35.29 -49.53,-82.05 -45.87,-127.53 37.94,2.66 69.69,26.74 82.36,59.75 11.24,29.3 25.53,57.41 41.62,84.53 5.9,9.94 11.72,20.61 16.75,31.38 z"
             style="fill:none"
             inkscape:connector-curvature="0" />
          <path
             id="path17585"
             d="m 291.825,227.488 c 44.793,30.429 99.264,35.713 146.715,19.041 8.006,-2.8 15.805,-6.235 23.328,-10.271 C 468.7,177.467 443.407,116.973 391.058,81.411 338.709,45.849 273.161,44.626 221.026,72.649 c -0.2,1.737 -0.379,3.479 -0.512,5.222 -4.804,57.132 20.51,115.107 71.311,149.617 z"
             style="fill:none;fill-opacity:1"
             inkscape:connector-curvature="0" />
        </g>
        <g
           transform="matrix(0.97928947,0.49393552,-0.44331553,1.0911097,238.06616,-163.91104)"
           id="g17589" />
      </g>
    </g>
    <g
       id="g5938"
       transform="matrix(1.062785,0,0,1.062785,-25.98257,-55.622198)">
      <path
         sodipodi:type="inkscape:offset"
         inkscape:radius="0"
         inkscape:original="M 386.20312 219.20703 C 385.44086 219.19203 384.66882 219.23828 383.89453 219.23828 C 382.34295 219.23828 380.76572 219.23891 379.14648 219.25391 C 375.90651 219.08852 372.51927 219.434 368.86133 219.49414 C 367.56985 219.70463 366.20457 219.83875 364.81836 220.10938 C 363.43668 220.42511 362.02054 220.72724 360.59375 221.04297 C 357.75069 221.68947 354.84423 222.15424 352.24023 223.08789 C 349.61517 223.9133 347.19445 224.70861 345.21289 225.44531 C 343.22079 226.14593 341.74655 227.09586 340.87305 227.7168 C 338.07809 228.65346 335.7189 229.48623 333.58398 230.26953 C 331.48062 231.14906 329.63938 232.07977 327.78711 232.94727 C 325.94536 233.8253 324.10719 234.70185 322.08203 235.66406 C 320.10648 236.73904 317.94919 237.91295 315.42188 239.28711 C 316.91631 238.97289 314.50569 240.3971 312.40234 241.64648 C 310.29898 242.85828 308.47512 244.12399 311.1543 243.00391 C 318.44162 240.67203 318.36463 239.54366 324.54688 237.71094 L 324.27148 237.55273 C 338.12745 232.0786 352.59395 228.40991 367.16406 227.48828 C 381.71914 226.53809 396.30952 228.37754 410.05273 233.06836 C 419.33514 235.87082 428.55272 240.39297 437.04883 246.21289 C 445.55997 252.0223 453.38472 259.06264 460.24805 266.7168 C 467.72179 274.88214 474.56316 284.31328 480.20117 294.0332 C 485.86173 303.74561 490.31544 313.71985 493.60352 322.78125 C 494.38232 324.94624 494.86977 326.86888 495.26367 328.72266 C 495.61999 330.58846 495.77501 332.4124 496.09375 334.33984 C 498.35045 342.84647 500.04793 352.76455 500.46289 362.97461 C 500.89493 373.04951 500.04783 383.38271 497.83789 392.67383 C 497.61915 393.72968 497.33255 394.75724 497.00195 395.73633 C 496.61405 396.89251 496.23658 398.02085 495.86523 399.12891 C 495.4653 400.22644 495.16816 401.33476 494.68555 402.36914 C 494.20895 403.40352 493.73575 404.42685 493.26367 405.44922 C 491.52717 409.59729 489.18538 413.42544 486.87305 417.92383 C 487.08202 417.98703 486.24932 419.32177 485.93359 420.02539 C 485.70807 420.14867 485.06843 421.04493 484.11523 422.52734 C 483.64614 423.27607 483.09133 424.1641 482.46289 425.16992 C 481.76979 426.13515 480.99669 427.21357 480.15625 428.38477 C 479.32183 429.55898 478.42284 430.82944 477.47266 432.16602 C 476.53749 433.51764 475.3489 434.77997 474.23633 436.17969 C 473.08918 437.55086 471.94183 439.00544 470.70898 440.42773 C 469.40547 441.78686 468.07712 443.16563 466.74805 444.54883 C 461.44382 450.11918 455.37187 455.02239 450.45703 458.61719 C 445.48356 462.12177 441.64602 464.29796 440.82812 464.69336 C 439.91553 465.26919 438.91102 465.76193 437.9082 466.30469 C 428.14317 471.2962 417.34094 474.41032 406.88281 476.30469 C 396.41266 478.3013 386.17813 478.81441 376.92578 478.87305 C 372.89949 479.48346 368.32983 479.42311 364.86133 479.8125 C 361.60932 479.00815 360.89314 479.75389 356.91797 479.18555 C 347.19805 475.696 341.41135 474.86598 346.30664 476.79492 C 338.04208 475.41324 330.10274 472.52371 323.13867 469.98438 C 319.90772 468.78762 316.63446 467.71479 313.45312 466.29102 C 310.71531 465.15589 309.32662 464.22918 308.26367 463.0625 C 304.8929 461.37861 303.7463 460.69419 302.59766 459.93945 C 301.4896 459.11856 300.37598 458.22192 297.08789 456.06445 C 296.76314 455.69008 295.55959 454.85475 293.92383 453.76172 C 292.30609 452.64916 290.09863 451.47189 288.10352 450 C 286.08888 448.55817 283.93379 447.23363 282.38672 445.95117 C 280.81109 444.69728 279.62345 443.72489 279.24609 443.31445 L 280.26953 444.09961 C 279.45013 443.3148 278.66551 442.56316 277.90625 441.83398 C 277.22067 441.04165 276.55575 440.27321 275.90625 439.52148 C 274.66439 437.97742 273.39916 436.60794 272.36328 435.0293 C 271.28679 433.49275 270.21761 431.9691 269.06445 430.41602 C 267.99548 428.79529 266.87247 427.11978 265.56445 425.36523 C 262.18767 420.31509 258.90062 415.0312 256.25 409.36914 C 254.79014 406.60576 253.70131 403.65814 252.44141 400.79102 C 251.42356 397.82918 250.21089 394.93213 249.41406 391.91016 C 245.73958 379.96961 244.31084 367.60086 244.52734 356.30078 C 243.80267 356.07226 244.72679 361.28751 243.76758 361.57617 C 243.64279 354.86318 244.29342 348.12596 245.35938 341.47461 C 246.4509 334.81124 248.18076 328.30099 250.05859 321.84961 C 250.98924 319.5944 252.18137 316.87313 252.78125 315.91992 C 254.5358 312.01692 253.34065 313.43881 254.52539 310.53711 L 255.28125 310.38672 C 256.61784 305.9981 258.51064 304.53596 260.24414 300.64648 C 260.11334 300.32624 260.78014 298.91051 261.48828 297.56641 C 262.13627 297.83403 263.78319 293.48791 264.2207 293.99609 L 264.19727 293.93164 C 264.66937 293.14982 264.93311 292.5511 265.61719 291.66406 C 265.81114 291.26865 266.40344 290.05825 267.19727 288.4375 C 267.5987 287.62263 268.0512 286.70411 268.5293 285.73438 C 269.06002 284.7932 269.61844 283.80088 270.17773 282.80859 C 272.33221 278.76577 274.99807 275.0123 275.41602 274.19141 L 276.0332 273.625 C 277.66297 271.77273 278.04029 270.6739 276.94727 271.64062 L 279.06836 269.42773 L 278.86133 269.7207 L 280.39062 268.12109 C 277.92685 270.15568 275.44057 272.09882 273.23047 274.13477 C 274.31897 272.31858 277.20417 269.84887 278.68359 268.14844 C 279.73752 267.29147 281.36247 266.0148 283.14258 264.62109 C 284.89262 263.1943 286.78991 261.64885 288.5625 260.43555 C 289.25259 259.80259 289.25558 258.78895 291.10938 257.67188 C 292.21443 257.38921 293.00694 256.18023 294.65625 255.41797 C 293.92556 256.13963 293.14195 256.76926 292.33008 257.36914 C 291.54828 258.00511 290.76079 258.64152 289.96094 259.29102 C 290.29772 259.41881 291.32164 258.69714 292.42969 257.82812 C 293.58586 257.02076 294.84475 256.08533 295.54688 255.67188 C 296.03699 255.05094 299.31571 252.82404 301.35742 251.38672 C 300.95218 252.16017 302.05911 251.49689 303.23828 250.83008 C 302.68316 251.36684 301.05792 252.82 301.63672 252.38672 C 301.48129 252.44112 302.97571 251.21607 303.51367 250.68555 C 303.91468 250.46447 304.32095 250.20875 304.65625 250.08203 C 306.07403 249.19949 306.93546 248.54754 306.2168 248.67383 C 306.22746 248.52442 305.90946 248.66235 305.67578 248.72656 C 306.22011 248.27211 306.13474 248.22774 306.7207 247.7793 C 309.55925 245.59476 312.36998 243.45898 311.61523 243.87695 C 311.04732 244.12118 311.06536 243.97861 311.16211 243.78516 C 311.22111 243.72224 311.23008 243.67744 311.2207 243.64062 C 311.39047 243.3623 311.56625 243.08816 310.8125 243.44336 L 310.38672 243.83984 C 307.26367 245.51782 307.90653 244.21761 308.76367 242.72461 C 309.67778 241.12342 310.66272 239.44811 306.60938 241.63867 C 310.344 240.42687 305.8642 242.9635 302.44531 245.06836 C 301.97924 245.05336 300.27164 245.70121 297.71875 247.125 C 295.64096 248.5533 296.63784 248.17262 296.34766 248.59961 C 295.08023 249.21153 292.8885 250.73703 292.91406 250.17773 C 291.63762 251.75638 290.18391 251.78239 288.42188 253.37305 C 286.97253 254.89156 288.66235 253.45038 287.68359 254.58398 C 286.4748 255.56725 285.02307 256.74634 283.63086 257.87695 C 282.23564 259.00305 281.01901 260.21277 280.07031 261.01562 C 279.11261 261.38999 276.48688 262.93587 277.625 261.02344 C 281.15064 257.78797 276.9885 262.98086 280.49609 259.46875 C 278.32508 260.2716 283.51599 256.27055 283.84375 255.26172 C 283.11457 255.63158 282.09779 256.29805 281.08594 257.18359 C 280.08614 258.08116 279.02756 259.12401 278.08789 260.09375 L 278.56055 259.80664 C 277.75919 260.68617 276.46015 261.90726 275.23633 263.23633 C 274.00348 264.55638 272.70388 265.8432 271.64844 266.625 C 271.83337 265.97099 270.89057 266.63778 272.0332 265.30273 L 269.74805 267.67773 C 269.55411 268.06563 269.35756 268.45994 270.01758 267.77734 C 269.20721 269.12745 268.11754 270.23185 267.21094 271.0332 C 267.09067 271.0498 266.39732 271.95488 265.43359 273.29297 C 264.49243 274.64909 263.38871 276.5181 262.26562 278.32227 C 260.02245 281.94262 258.25075 285.69298 258.25977 285.38477 C 257.61433 286.35478 257.13398 286.91116 256.70508 287.49023 C 256.88489 287.14895 256.8588 287.2362 257.07227 286.82422 C 258.10064 285.05013 259.47036 282.68958 260.79492 280.4043 C 263.62143 275.94201 266.40073 271.83082 265.49414 273.11328 C 264.7439 273.80487 260.89784 279.35193 257.72852 285.17188 C 256.07771 288.0405 254.71451 291.04575 253.49219 293.27539 C 252.42322 295.58923 251.61966 297.21166 251.31445 297.46875 C 250.53265 299.02634 249.69632 300.95538 250.18945 300.73438 C 248.86339 303.35944 249.96399 299.65709 248.83789 301.44922 C 248.86639 301.51542 249.05891 301.36179 248.7793 301.9707 L 247.58398 303.6543 C 246.15568 308.02488 243.28868 314.16456 242.5625 318.97266 C 242.6407 317.54737 242.48538 315.8342 243.14844 312.76562 L 243.50391 312.3125 C 243.56251 311.86447 244.35285 309.42418 244.01758 309.37305 C 243.40115 310.72617 242.8487 311.99651 242.42773 313.33008 C 242.03533 314.67117 241.70033 316.05329 241.39062 317.58984 C 241.13202 318.11305 240.8436 318.73033 240.62109 319.13477 C 240.66619 319.13477 240.71465 319.0994 240.75977 319.125 C 240.25461 320.04061 240.25376 319.92951 240.24023 319.53711 C 240.23123 319.48301 240.22382 319.4188 240.23242 319.31055 C 239.46715 320.05927 238.92819 322.96085 238.2832 326.27148 C 237.78705 329.61671 237.22819 333.38514 236.61328 336.03125 C 236.51408 337.63546 236.75366 336.20607 236.64844 338.20117 C 236.00046 340.90591 235.63564 343.2222 235.25977 345.57812 C 234.82978 347.92955 234.62442 350.33838 234.38086 353.24609 C 234.71914 355.12092 234.88018 355.25908 235.41992 353.04297 C 235.28912 354.49682 235.20433 355.9518 235.19531 357.41016 C 234.04516 353.39289 234.18485 365.64658 233.0332 361.25195 C 232.7295 362.55845 232.92718 365.23171 233.23242 367.71094 C 233.5722 367.93796 233.90914 368.3052 234.29102 371.40234 C 234.4534 375.7624 234.34726 374.73032 234.57422 378.34766 C 234.35772 379.24825 233.99117 377.96079 233.72656 378.15625 C 235.15185 383.60181 233.68119 383.14419 234.97266 388.32812 C 235.68681 391.59217 237.79241 397.8597 238.38477 397.82812 C 239.81608 402.0634 239.40295 402.22013 238.75195 401.97656 L 239.91602 405.45703 C 235.59655 394.38699 232.97477 382.06017 232.11328 369.87305 C 232.24408 376.53041 232.74514 383.55872 234.09375 390.54688 C 235.51002 397.50193 237.37569 404.51543 240.21875 410.94727 C 245.56809 423.9673 254.01162 434.73656 262.43555 440.98047 C 262.16042 442.6373 266.18049 448.62206 270.99609 453.64062 C 272.19135 454.89603 273.39643 456.12901 274.53906 457.26562 C 275.75687 458.31655 276.88813 459.28998 277.85938 460.12891 C 279.83945 461.7722 281.21514 462.84711 281.43164 462.77344 C 283.77254 464.16865 286.11911 465.56736 288.47656 466.97461 C 290.88511 468.2721 293.30431 469.57525 295.73242 470.88477 C 303.51136 474.80582 311.59229 478.37281 320.01172 481.46094 C 328.47474 484.42879 337.23428 486.94019 346.28516 488.86914 C 355.35859 490.68232 364.70478 491.84465 374.23828 492.26562 C 383.78531 492.7362 393.46562 491.89498 403.18555 490.62305 C 405.8512 490.07729 409.08649 489.4167 412.75195 488.66797 C 414.60122 488.34322 416.49226 487.73869 418.48438 487.15234 C 420.47496 486.56147 422.55468 485.94367 424.70312 485.30469 C 426.8576 484.67473 428.97453 483.71828 431.20117 482.90039 C 433.39323 481.9953 435.73056 481.2744 437.93164 480.1543 C 442.3759 478.01337 447.02683 475.92183 451.36133 473.22461 C 455.8582 470.79801 459.99275 467.79434 464.0957 464.98438 C 466.14794 463.58013 467.97913 461.93869 469.875 460.4668 C 471.73179 458.94829 473.62205 457.54923 475.23828 455.9375 C 478.55945 452.81931 481.75949 449.97923 484.2793 447.0625 C 485.58581 445.65075 486.8192 444.31852 487.96484 443.07812 C 489.12101 441.84528 490.02535 440.56011 490.93945 439.47461 C 491.70901 438.48869 492.4188 437.44541 493.19727 436.4668 C 492.41365 437.42471 491.64914 438.35687 490.10156 440.25 C 498.094 428.95443 503.60532 417.5855 507.41211 406.10352 C 506.30706 407.95729 505.81102 408.17415 503.43555 412.58984 L 506.00977 407.05273 C 506.36759 405.70112 506.62658 403.8309 507.1543 401.82227 C 507.59482 399.78507 508.34571 397.60439 508.74414 395.30859 C 509.16059 393.02332 509.57755 390.7258 509.96094 388.62695 C 510.40595 386.54014 510.39637 384.61584 510.5332 383.12891 C 510.71812 383.80096 510.98942 382.97687 511.28711 381.46289 C 511.42993 380.70514 511.60655 379.7776 511.73438 378.7793 C 511.81558 377.77799 511.89972 376.71062 511.98242 375.67773 L 511.5332 377.28906 C 512.32703 369.45298 511.9298 360.98129 511.12695 352.81445 C 510.5 348.7641 510.10322 344.7243 509.24023 340.93555 C 508.86286 339.03066 508.49364 337.16385 508.13281 335.34766 C 507.68779 333.55402 507.25195 331.80978 506.83398 330.12891 C 506.35588 328.25859 506.22752 326.79239 506.15234 325.90234 C 504.68646 321.71066 503.37369 317.47854 501.61914 313.41016 C 502.13484 313.76798 501.33352 311.12643 500.72461 309.11328 C 500.07661 307.11968 499.5723 305.77594 501.01562 308.625 C 496.50973 299.70042 492.42766 290.42494 486.80469 282.72266 C 477.88311 268.38108 466.63999 254.63511 452.67578 243.75 C 438.9461 232.63185 422.43182 224.74447 405.41406 220.89258 C 405.67416 221.0279 405.92228 221.19263 406.17188 221.37305 C 403.18147 220.77165 400.23585 220.39499 397.32812 219.95898 C 394.41591 219.55304 391.45374 219.58295 388.46484 219.35742 C 387.71611 219.31232 386.9624 219.26717 386.20312 219.20703 z M 493.19727 436.4668 C 493.29673 436.34521 493.49163 436.10639 493.58984 435.98633 C 494.02585 435.45109 494.4616 434.91514 495.00586 434.24609 C 495.5005 433.53796 496.09394 432.68635 496.88477 431.55273 C 495.79178 433.31811 494.46894 434.86817 493.19727 436.4668 z M 280.39062 268.12109 C 280.6909 267.87313 280.96533 267.63221 281.26367 267.38867 C 281.15745 267.44134 281.06443 267.44468 280.9668 267.51953 L 280.39062 268.12109 z M 281.26367 267.38867 C 281.64819 267.19802 282.01496 267.1467 281.69336 267.7793 C 282.76684 266.42919 284.07913 265.00122 285.4082 263.9082 C 284.11518 264.90292 282.68055 266.23207 281.26367 267.38867 z M 311.11914 244.14844 C 310.84251 244.42058 310.10057 244.77505 309.58789 245.05469 C 310.70085 244.4408 307.9878 246.65163 305.38477 248.75586 C 304.19183 249.28457 302.14664 250.58712 301.79883 250.52344 C 301.85212 250.48131 301.53727 250.77719 301.61719 250.71094 L 300.4375 251.27344 C 300.74638 250.99837 301.40132 250.51808 301.96094 250.08789 C 301.69304 250.40666 301.69727 250.50484 301.79883 250.52344 C 301.57834 250.69775 302.39311 249.91463 302.54883 249.74609 C 302.41795 249.80103 302.05221 250.07134 301.9707 250.08008 C 302.33964 249.79672 302.5662 249.58941 302.97656 249.30469 C 302.79876 249.48286 302.63744 249.65019 302.54883 249.74609 C 303.53655 249.33148 305.52818 247.97605 306.91602 247.23242 C 306.8084 247.01918 306.49896 247.1123 306.42188 247.03906 C 306.94768 246.60901 307.65122 246.10829 308.36523 245.61719 L 308.86328 245.4043 C 309.09295 245.2361 309.31483 245.09816 309.56641 244.93164 C 310.1206 244.59505 310.67783 244.23908 311.11914 244.14844 z M 307.47656 244.82031 C 307.48654 244.89818 307.29399 245.12636 306.99414 245.43359 C 306.74756 245.38864 306.64769 245.26466 306.86914 245.02734 C 307.28485 244.79994 307.46693 244.74511 307.47656 244.82031 z "
         style="display:inline;fill:#c9d5a2;fill-opacity:1;fill-rule:nonzero;stroke:none"
         id="path5946"
         d="m 386.20312,219.20703 c -0.76226,-0.015 -1.5343,0.0312 -2.30859,0.0312 -1.55158,0 -3.12881,6.3e-4 -4.74805,0.0156 -3.23997,-0.16539 -6.62721,0.18009 -10.28515,0.24023 -1.29148,0.21049 -2.65676,0.34461 -4.04297,0.61524 -1.38168,0.31573 -2.79782,0.61786 -4.22461,0.93359 -2.84306,0.6465 -5.74952,1.11127 -8.35352,2.04492 -2.62506,0.82541 -5.04578,1.62072 -7.02734,2.35742 -1.9921,0.70062 -3.46634,1.65055 -4.33984,2.27149 -2.79496,0.93666 -5.15415,1.76943 -7.28907,2.55273 -2.10336,0.87953 -3.9446,1.81024 -5.79687,2.67774 -1.84175,0.87803 -3.67992,1.75458 -5.70508,2.71679 -1.97555,1.07498 -4.13284,2.24889 -6.66015,3.62305 1.49443,-0.31422 -0.91619,1.10999 -3.01954,2.35937 -2.10336,1.2118 -3.92722,2.47751 -1.24804,1.35743 7.28732,-2.33188 7.21033,-3.46025 13.39258,-5.29297 l -0.2754,-0.15821 c 13.85597,-5.47413 28.32247,-9.14282 42.89258,-10.06445 14.55508,-0.95019 29.14546,0.88926 42.88867,5.58008 9.28241,2.80246 18.49999,7.32461 26.9961,13.14453 8.51114,5.80941 16.33589,12.84975 23.19922,20.50391 7.47374,8.16534 14.31511,17.59648 19.95312,27.3164 5.66056,9.71241 10.11427,19.68665 13.40235,28.74805 0.7788,2.16499 1.26625,4.08763 1.66015,5.94141 0.35632,1.8658 0.51134,3.68974 0.83008,5.61718 2.2567,8.50663 3.95418,18.42471 4.36914,28.63477 0.43204,10.0749 -0.41506,20.4081 -2.625,29.69922 -0.21874,1.05585 -0.50534,2.08341 -0.83594,3.0625 -0.3879,1.15618 -0.76537,2.28452 -1.13672,3.39258 -0.39993,1.09753 -0.69707,2.20585 -1.17968,3.24023 -0.4766,1.03438 -0.9498,2.05771 -1.42188,3.08008 -1.7365,4.14807 -4.07829,7.97622 -6.39062,12.47461 0.20897,0.0632 -0.62373,1.39794 -0.93946,2.10156 -0.22552,0.12328 -0.86516,1.01954 -1.81836,2.50195 -0.46909,0.74873 -1.0239,1.63676 -1.65234,2.64258 -0.6931,0.96523 -1.4662,2.04365 -2.30664,3.21485 -0.83442,1.17421 -1.73341,2.44467 -2.68359,3.78125 -0.93517,1.35162 -2.12376,2.61395 -3.23633,4.01367 -1.14715,1.37117 -2.2945,2.82575 -3.52735,4.24804 -1.30351,1.35913 -2.63186,2.7379 -3.96093,4.1211 -5.30423,5.57035 -11.37618,10.47356 -16.29102,14.06836 -4.97347,3.50458 -8.81101,5.68077 -9.62891,6.07617 -0.91259,0.57583 -1.9171,1.06857 -2.91992,1.61133 -9.76503,4.99151 -20.56726,8.10563 -31.02539,10 -10.47015,1.99661 -20.70468,2.50972 -29.95703,2.56836 -4.02629,0.61041 -8.59595,0.55006 -12.06445,0.93945 -3.25201,-0.80435 -3.96819,-0.0586 -7.94336,-0.62695 -9.71992,-3.48955 -15.50662,-4.31957 -10.61133,-2.39063 -8.26456,-1.38168 -16.2039,-4.27121 -23.16797,-6.81054 -3.23095,-1.19676 -6.50421,-2.26959 -9.68555,-3.69336 -2.73781,-1.13513 -4.1265,-2.06184 -5.18945,-3.22852 -3.37077,-1.68389 -4.51737,-2.36831 -5.66601,-3.12305 -1.10806,-0.82089 -2.22168,-1.71753 -5.50977,-3.875 -0.32475,-0.37437 -1.5283,-1.2097 -3.16406,-2.30273 -1.61774,-1.11256 -3.8252,-2.28983 -5.82031,-3.76172 -2.01464,-1.44183 -4.16973,-2.76637 -5.7168,-4.04883 -1.57563,-1.25389 -2.76327,-2.22628 -3.14063,-2.63672 l 1.02344,0.78516 c -0.8194,-0.78481 -1.60402,-1.53645 -2.36328,-2.26563 -0.68558,-0.79233 -1.3505,-1.56077 -2,-2.3125 -1.24186,-1.54406 -2.50709,-2.91354 -3.54297,-4.49218 -1.07649,-1.53655 -2.14567,-3.0602 -3.29883,-4.61328 -1.06897,-1.62073 -2.19198,-3.29624 -3.5,-5.05079 -3.37678,-5.05014 -6.66383,-10.33403 -9.31445,-15.99609 -1.45986,-2.76338 -2.54869,-5.711 -3.80859,-8.57812 -1.01785,-2.96184 -2.23052,-5.85889 -3.02735,-8.88086 -3.67448,-11.94055 -5.10322,-24.3093 -4.88672,-35.60938 -0.72467,-0.22852 0.19945,4.98673 -0.75976,5.27539 -0.12479,-6.71299 0.52584,-13.45021 1.5918,-20.10156 1.09152,-6.66337 2.82138,-13.17362 4.69921,-19.625 0.93065,-2.25521 2.12278,-4.97648 2.72266,-5.92969 1.75455,-3.903 0.5594,-2.48111 1.74414,-5.38281 l 0.75586,-0.15039 c 1.33659,-4.38862 3.22939,-5.85076 4.96289,-9.74024 -0.1308,-0.32024 0.536,-1.73597 1.24414,-3.08007 0.64799,0.26762 2.29491,-4.0785 2.73242,-3.57032 l -0.0234,-0.0644 c 0.4721,-0.78182 0.73584,-1.38054 1.41992,-2.26758 0.19395,-0.39541 0.78625,-1.60581 1.58008,-3.22656 0.40143,-0.81487 0.85393,-1.73339 1.33203,-2.70312 0.53072,-0.94118 1.08914,-1.9335 1.64843,-2.92579 2.15448,-4.04282 4.82034,-7.79629 5.23829,-8.61718 l 0.61718,-0.56641 c 1.62977,-1.85227 2.00709,-2.9511 0.91407,-1.98438 l 2.12109,-2.21289 -0.20703,0.29297 1.52929,-1.59961 c -2.46377,2.03459 -4.95005,3.97773 -7.16015,6.01368 1.0885,-1.81619 3.9737,-4.2859 5.45312,-5.98633 1.05393,-0.85697 2.67888,-2.13364 4.45899,-3.52735 1.75004,-1.42679 3.64733,-2.97224 5.41992,-4.18554 0.69009,-0.63296 0.69308,-1.6466 2.54688,-2.76367 1.10505,-0.28267 1.89756,-1.49165 3.54687,-2.25391 -0.73069,0.72166 -1.5143,1.35129 -2.32617,1.95117 -0.7818,0.63597 -1.56929,1.27238 -2.36914,1.92188 0.33678,0.12779 1.3607,-0.59388 2.46875,-1.4629 1.15617,-0.80736 2.41506,-1.74279 3.11719,-2.15624 0.49011,-0.62094 3.76883,-2.84784 5.81054,-4.28516 -0.40524,0.77345 0.70169,0.11017 1.88086,-0.55664 -0.55512,0.53676 -2.18036,1.98992 -1.60156,1.55664 -0.15543,0.0544 1.33899,-1.17065 1.87695,-1.70117 0.40101,-0.22108 0.80728,-0.4768 1.14258,-0.60352 1.41778,-0.88254 2.27921,-1.53449 1.56055,-1.4082 0.0107,-0.14941 -0.30734,-0.0115 -0.54102,0.0527 0.54433,-0.45445 0.45896,-0.49882 1.04492,-0.94726 2.83855,-2.18454 5.64928,-4.32032 4.89453,-3.90235 -0.56791,0.24423 -0.54987,0.10166 -0.45312,-0.0918 0.059,-0.0629 0.068,-0.10772 0.0586,-0.14454 0.16977,-0.27832 0.34555,-0.55246 -0.4082,-0.19726 l -0.42578,0.39648 c -3.12305,1.67798 -2.48019,0.37777 -1.62305,-1.11523 0.91411,-1.60119 1.89905,-3.2765 -2.15429,-1.08594 3.73462,-1.2118 -0.74518,1.32483 -4.16407,3.42969 -0.46607,-0.015 -2.17367,0.63285 -4.72656,2.05664 -2.07779,1.4283 -1.08091,1.04762 -1.37109,1.47461 -1.26743,0.61192 -3.45916,2.13742 -3.4336,1.57812 -1.27644,1.57865 -2.73015,1.60466 -4.49218,3.19532 -1.44935,1.51851 0.24047,0.0773 -0.73829,1.21093 -1.20879,0.98327 -2.66052,2.16236 -4.05273,3.29297 -1.39522,1.1261 -2.61185,2.33582 -3.56055,3.13867 -0.9577,0.37437 -3.58343,1.92025 -2.44531,0.008 3.52564,-3.23547 -0.6365,1.95742 2.87109,-1.55469 -2.17101,0.80285 3.0199,-3.1982 3.34766,-4.20703 -0.72918,0.36986 -1.74596,1.03633 -2.75781,1.92187 -0.9998,0.89757 -2.05838,1.94042 -2.99805,2.91016 l 0.47266,-0.28711 c -0.80136,0.87953 -2.1004,2.10062 -3.32422,3.42969 -1.23285,1.32005 -2.53245,2.60687 -3.58789,3.38867 0.18493,-0.65401 -0.75787,0.0128 0.38476,-1.32227 l -2.28515,2.375 c -0.19394,0.3879 -0.39049,0.78221 0.26953,0.0996 -0.81037,1.35011 -1.90004,2.45451 -2.80664,3.25586 -0.12027,0.0166 -0.81362,0.92168 -1.77735,2.25977 -0.94116,1.35612 -2.04488,3.22513 -3.16797,5.0293 -2.24317,3.62035 -4.01487,7.37071 -4.00585,7.0625 -0.64544,0.97001 -1.12579,1.52639 -1.55469,2.10546 0.17981,-0.34128 0.15372,-0.25403 0.36719,-0.66601 1.02837,-1.77409 2.39809,-4.13464 3.72265,-6.41992 2.82651,-4.46229 5.60581,-8.57348 4.69922,-7.29102 -0.75024,0.69159 -4.5963,6.23865 -7.76562,12.0586 -1.65081,2.86862 -3.01401,5.87387 -4.23633,8.10351 -1.06897,2.31384 -1.87253,3.93627 -2.17774,4.19336 -0.7818,1.55759 -1.61813,3.48663 -1.125,3.26563 -1.32606,2.62506 -0.22546,-1.07729 -1.35156,0.71484 0.0285,0.0662 0.22102,-0.0874 -0.0586,0.52148 l -1.19532,1.6836 c -1.4283,4.37058 -4.2953,10.51026 -5.02148,15.31836 0.0782,-1.42529 -0.0771,-3.13846 0.58594,-6.20704 l 0.35547,-0.45312 c 0.0586,-0.44803 0.84894,-2.88832 0.51367,-2.93945 -0.61643,1.35312 -1.16888,2.62346 -1.58985,3.95703 -0.3924,1.34109 -0.7274,2.72321 -1.03711,4.25976 -0.2586,0.52321 -0.54702,1.14049 -0.76953,1.54493 0.0451,0 0.0936,-0.0354 0.13868,-0.01 -0.50516,0.91561 -0.50601,0.80451 -0.51954,0.41211 -0.009,-0.0541 -0.0164,-0.11831 -0.008,-0.22656 -0.76527,0.74872 -1.30423,3.6503 -1.94922,6.96093 -0.49615,3.34523 -1.05501,7.11366 -1.66992,9.75977 -0.0992,1.60421 0.14038,0.17482 0.0352,2.16992 -0.64798,2.70474 -1.0128,5.02103 -1.38867,7.37695 -0.42999,2.35143 -0.63535,4.76026 -0.87891,7.66797 0.33828,1.87483 0.49932,2.01299 1.03906,-0.20312 -0.1308,1.45385 -0.21559,2.90883 -0.22461,4.36719 -1.15015,-4.01727 -1.01046,8.23642 -2.16211,3.84179 -0.3037,1.3065 -0.10602,3.97976 0.19922,6.45899 0.33978,0.22702 0.67672,0.59426 1.0586,3.6914 0.16238,4.36006 0.0562,3.32798 0.2832,6.94532 -0.2165,0.90059 -0.58305,-0.38687 -0.84766,-0.19141 1.42529,5.44556 -0.0454,4.98794 1.2461,10.17187 0.71415,3.26405 2.81975,9.53158 3.41211,9.5 1.43131,4.23528 1.01818,4.39201 0.36718,4.14844 l 1.16407,3.48047 c -4.31947,-11.07004 -6.94125,-23.39686 -7.80274,-35.58398 0.1308,6.65736 0.63186,13.68567 1.98047,20.67383 1.41627,6.95505 3.28194,13.96855 6.125,20.40039 5.34934,13.02003 13.79287,23.78929 22.2168,30.0332 -0.27513,1.65683 3.74494,7.64159 8.56054,12.66015 1.19526,1.25541 2.40034,2.48839 3.54297,3.625 1.21781,1.05093 2.34907,2.02436 3.32032,2.86329 1.98007,1.64329 3.35576,2.7182 3.57226,2.64453 2.3409,1.39521 4.68747,2.79392 7.04492,4.20117 2.40855,1.29749 4.82775,2.60064 7.25586,3.91016 7.77894,3.92105 15.85987,7.48804 24.2793,10.57617 8.46302,2.96785 17.22256,5.47925 26.27344,7.4082 9.07343,1.81318 18.41962,2.97551 27.95312,3.39648 9.54703,0.47058 19.22734,-0.37064 28.94727,-1.64257 2.66565,-0.54576 5.90094,-1.20635 9.5664,-1.95508 1.84927,-0.32475 3.74031,-0.92928 5.73243,-1.51563 1.99058,-0.59087 4.0703,-1.20867 6.21874,-1.84765 2.15448,-0.62996 4.27141,-1.58641 6.49805,-2.4043 2.19206,-0.90509 4.52939,-1.62599 6.73047,-2.74609 4.44426,-2.14093 9.09519,-4.23247 13.42969,-6.92969 4.49687,-2.4266 8.63142,-5.43027 12.73437,-8.24023 2.05224,-1.40425 3.88343,-3.04569 5.7793,-4.51758 1.85679,-1.51851 3.74705,-2.91757 5.36328,-4.5293 3.32117,-3.11819 6.52121,-5.95827 9.04102,-8.875 1.30651,-1.41175 2.5399,-2.74398 3.68554,-3.98438 1.15617,-1.23284 2.06051,-2.51801 2.97461,-3.60351 0.76956,-0.98592 1.47935,-2.0292 2.25782,-3.00781 -0.78362,0.95791 -1.54813,1.89007 -3.09571,3.7832 7.99244,-11.29557 13.50376,-22.6645 17.31055,-34.14648 -1.10505,1.85377 -1.60109,2.07063 -3.97656,6.48632 l 2.57422,-5.53711 c 0.35782,-1.35161 0.61681,-3.22183 1.14453,-5.23046 0.44052,-2.0372 1.19141,-4.21788 1.58984,-6.51368 0.41645,-2.28527 0.83341,-4.58279 1.2168,-6.68164 0.44501,-2.08681 0.43543,-4.01111 0.57226,-5.49804 0.18492,0.67205 0.45622,-0.15204 0.75391,-1.66602 0.14282,-0.75775 0.31944,-1.68529 0.44727,-2.68359 0.0812,-1.00131 0.16534,-2.06868 0.24804,-3.10157 l -0.44922,1.61133 c 0.79383,-7.83608 0.3966,-16.30777 -0.40625,-24.47461 -0.62695,-4.05035 -1.02373,-8.09015 -1.88672,-11.8789 -0.37737,-1.90489 -0.74659,-3.7717 -1.10742,-5.58789 -0.44502,-1.79364 -0.88086,-3.53788 -1.29883,-5.21875 -0.4781,-1.87032 -0.60646,-3.33652 -0.68164,-4.22657 -1.46588,-4.19168 -2.77865,-8.4238 -4.5332,-12.49218 0.5157,0.35782 -0.28562,-2.28373 -0.89453,-4.29688 -0.648,-1.9936 -1.15231,-3.33734 0.29101,-0.48828 -4.50589,-8.92458 -8.58796,-18.20006 -14.21093,-25.90234 -8.92158,-14.34158 -20.1647,-28.08755 -34.12891,-38.97266 -13.72968,-11.11815 -30.24396,-19.00553 -47.26172,-22.85742 0.2601,0.13532 0.50822,0.30005 0.75782,0.48047 -2.99041,-0.6014 -5.93603,-0.97806 -8.84376,-1.41407 -2.91221,-0.40594 -5.87438,-0.37603 -8.86328,-0.60156 -0.74873,-0.0451 -1.50244,-0.0902 -2.26172,-0.15039 z M 493.19727,436.4668 c 0.0995,-0.12159 0.29436,-0.36041 0.39257,-0.48047 0.43601,-0.53524 0.87176,-1.07119 1.41602,-1.74024 0.49464,-0.70813 1.08808,-1.55974 1.87891,-2.69336 -1.09299,1.76538 -2.41583,3.31544 -3.6875,4.91407 z M 280.39062,268.12109 c 0.30028,-0.24796 0.57471,-0.48888 0.87305,-0.73242 -0.10622,0.0527 -0.19924,0.056 -0.29687,0.13086 l -0.57618,0.60156 z m 0.87305,-0.73242 c 0.38452,-0.19065 0.75129,-0.24197 0.42969,0.39063 1.07348,-1.35011 2.38577,-2.77808 3.71484,-3.8711 -1.29302,0.99472 -2.72765,2.32387 -4.14453,3.48047 z m 29.85547,-23.24023 c -0.27663,0.27214 -1.01857,0.62661 -1.53125,0.90625 1.11296,-0.61389 -1.60009,1.59694 -4.20312,3.70117 -1.19294,0.52871 -3.23813,1.83126 -3.58594,1.76758 0.0533,-0.0421 -0.26156,0.25375 -0.18164,0.1875 l -1.17969,0.5625 c 0.30888,-0.27507 0.96382,-0.75536 1.52344,-1.18555 -0.2679,0.31877 -0.26367,0.41695 -0.16211,0.43555 -0.22049,0.17431 0.59428,-0.60881 0.75,-0.77735 -0.13088,0.0549 -0.49662,0.32525 -0.57813,0.33399 0.36894,-0.28336 0.5955,-0.49067 1.00586,-0.77539 -0.1778,0.17817 -0.33912,0.3455 -0.42773,0.4414 0.98772,-0.41461 2.97935,-1.77004 4.36719,-2.51367 -0.10762,-0.21324 -0.41706,-0.12012 -0.49414,-0.19336 0.5258,-0.43005 1.22934,-0.93077 1.94335,-1.42187 l 0.49805,-0.21289 c 0.22967,-0.1682 0.45155,-0.30614 0.70313,-0.47266 0.55419,-0.33659 1.11142,-0.69256 1.55273,-0.7832 z m -3.64258,0.67187 c 0.01,0.0779 -0.18257,0.30605 -0.48242,0.61328 -0.24658,-0.045 -0.34645,-0.16893 -0.125,-0.40625 0.41571,-0.2274 0.59779,-0.28223 0.60742,-0.20703 z"
         transform="matrix(0.8366023,0,0,0.8366023,-164.48782,622.54448)" />
      <path
         inkscape:connector-curvature="0"
         id="path5907"
         d="m 131.04168,1022.1871 c -2.44666,-0.8123 -5.54702,-1.4818 -6.88966,-1.4878 -2.65633,-0.012 -18.89196,-5.078 -25.218651,-7.8692 C 92.507019,1009.995 71.539812,995.51668 67.569843,991.17289 63.082906,986.26348 54.352762,973.2846 50.822847,966.27557 43.76557,952.2626 40.10626,936.24516 40.123986,919.44478 c 0.0075,-7.08965 2.077685,-18.94229 4.651242,-26.62996 1.740296,-5.19858 8.217518,-18.70256 11.034197,-23.00456 1.067951,-1.63112 3.361648,-5.62633 5.097101,-8.87826 1.735454,-3.25194 4.379884,-7.58073 5.876509,-9.61954 1.496627,-2.03881 2.728626,-4.04906 2.737777,-4.46722 0.0091,-0.41816 0.595498,-0.66168 1.302991,-0.54117 0.788575,0.13433 1.541337,-0.45154 1.945288,-1.51401 0.362415,-0.95322 2.11153,-2.71503 3.88692,-3.91512 1.775392,-1.20009 4.926487,-3.43811 7.002435,-4.97337 2.075946,-1.53527 4.188641,-2.79139 4.694874,-2.79139 0.506232,0 2.552086,-1.62311 4.546341,-3.60691 3.704402,-3.68497 11.097449,-7.27014 22.942999,-11.12592 14.94709,-4.86535 33.77536,-6.52604 47.81953,-4.21778 8.4356,1.38645 20.28349,5.14865 27.19061,8.63416 23.53139,11.87452 44.59101,36.94637 56.30725,67.03475 0.79394,2.03889 2.51269,8.71164 3.81942,14.82832 2.23291,10.45188 2.37421,12.01372 2.34784,25.94955 -0.0329,17.42025 -0.92502,21.80142 -6.99296,34.34484 -9.7459,20.14635 -27.31942,38.78361 -44.74285,47.45121 -14.41844,7.1727 -27.9732,9.8475 -54.98009,10.8491 -9.82075,0.3643 -11.64143,0.2398 -15.56973,-1.0644 z"
         style="opacity:1;fill:#c9d5a2;fill-opacity:1;fill-rule:evenodd;stroke:#c9d5a2;stroke-width:3.92950368;stroke-linecap:butt;stroke-linejoin:miter;stroke-miterlimit:4;stroke-dasharray:none;stroke-dashoffset:0;stroke-opacity:1" />
    </g>
    <text
       xml:space="preserve"
       style="font-style:normal;font-variant:normal;font-weight:normal;font-stretch:normal;font-size:198.59750366px;line-height:257.99999237%;font-family:'Droid Sans';-inkscape-font-specification:'Droid Sans';letter-spacing:0px;word-spacing:0px;fill:#ffffff;fill-opacity:1;stroke:none;stroke-width:1px;stroke-linecap:butt;stroke-linejoin:miter;stroke-opacity:1"
       x="76.66571"
       y="1004.2061"
       id="text5909"
       sodipodi:linespacing="257.99999%"><tspan
         sodipodi:role="line"
         id="tspan5911"
         x="76.66571"
         y="1004.2061"
         style="font-style:normal;font-variant:normal;font-weight:normal;font-stretch:normal;font-family:'Cedarville Cursive';-inkscape-font-specification:'Cedarville Cursive';fill:#ffffff">E</tspan></text>
  </g>
</svg>
