<?xml version="1.0" encoding="UTF-8" standalone="no"?>
<!-- Created with Inkscape (http://www.inkscape.org/) -->

<svg
   xmlns:dc="http://purl.org/dc/elements/1.1/"
   xmlns:cc="http://creativecommons.org/ns#"
   xmlns:rdf="http://www.w3.org/1999/02/22-rdf-syntax-ns#"
   xmlns:svg="http://www.w3.org/2000/svg"
   xmlns="http://www.w3.org/2000/svg"
   xmlns:sodipodi="http://sodipodi.sourceforge.net/DTD/sodipodi-0.dtd"
   xmlns:inkscape="http://www.inkscape.org/namespaces/inkscape"
   width="630.04883"
   height="305"
   viewBox="0 0 630.04883 305.00001"
   id="svg2"
   version="1.1"
   inkscape:version="0.91 r13725"
   sodipodi:docname="logo3.svg">
  <defs
     id="defs4" />
  <sodipodi:namedview
     id="base"
     pagecolor="#ffffff"
     bordercolor="#666666"
     borderopacity="1.0"
     inkscape:pageopacity="0.0"
     inkscape:pageshadow="2"
     inkscape:zoom="0.70710678"
     inkscape:cx="437.89416"
     inkscape:cy="218.2877"
     inkscape:document-units="px"
     inkscape:current-layer="layer2"
     showgrid="false"
     inkscape:window-width="1280"
     inkscape:window-height="755"
     inkscape:window-x="0"
     inkscape:window-y="0"
     inkscape:window-maximized="1"
     units="px"
     fit-margin-top="10"
     fit-margin-left="10"
     fit-margin-right="10"
     fit-margin-bottom="10" />
  <metadata
     id="metadata7">
    <rdf:RDF>
      <cc:Work
         rdf:about="">
        <dc:format>image/svg+xml</dc:format>
        <dc:type
           rdf:resource="http://purl.org/dc/dcmitype/StillImage" />
        <dc:title></dc:title>
      </cc:Work>
    </rdf:RDF>
  </metadata>
  <g
     inkscape:label="Layer 1"
     inkscape:groupmode="layer"
     id="layer1"
     style="display:inline"
     transform="translate(-57.022827,-203.86234)" />
  <g
     inkscape:groupmode="layer"
     id="layer2"
     inkscape:label="Layer 2"
     transform="translate(-57.022827,-203.86234)">
    <path
       d="m 238.75196,401.97562 1.16368,3.48053 c -4.31947,-11.07004 -6.94151,-23.39548 -7.803,-35.5826 0.1308,6.65736 0.63296,13.68457 1.98157,20.6727 1.41627,6.95505 3.28207,13.96873 6.12513,20.40057 5.34934,13.02003 13.79132,23.78938 22.21525,30.03329 -0.27513,1.65683 3.74515,7.64214 8.56075,12.66071 1.19526,1.2554 2.40105,2.48824 3.54368,3.62486 1.21781,1.05093 2.34842,2.02518 3.31966,2.86411 1.98007,1.64329 3.35574,2.71677 3.57224,2.6431 2.3409,1.39521 4.68781,2.79494 7.04526,4.20219 2.40855,1.29749 4.82763,2.601 7.25574,3.91052 -3.28358,-1.88986 -6.69344,-3.5542 -9.85374,-5.61245 3.1603,2.05825 6.57016,3.72259 9.85374,5.61245 7.77894,3.92105 15.86009,7.48727 24.27952,10.5754 8.46302,2.96785 17.22373,5.48015 26.27461,7.4091 9.07343,1.81318 18.41899,2.97536 27.95249,3.39634 9.54703,0.47058 19.22636,-0.37137 28.94629,-1.6433 2.66565,-0.54576 5.90261,-1.20728 9.56807,-1.95601 1.84927,-0.32475 3.73913,-0.92914 5.73123,-1.51549 1.99059,-0.59087 4.06988,-1.20879 6.21834,-1.84777 2.15447,-0.62996 4.27135,-1.58616 6.49799,-2.40405 2.19206,-0.90509 4.52995,-1.62524 6.73103,-2.74534 4.44426,-2.14093 9.09599,-4.23226 13.43049,-6.92948 4.49687,-2.4266 8.63142,-5.43053 12.73437,-8.24051 2.05224,-1.40424 3.88196,-3.04603 5.77783,-4.51792 1.85679,-1.51851 3.74815,-2.91823 5.36438,-4.52996 3.32117,-3.11819 6.52055,-5.95824 9.04036,-8.87497 1.30651,-1.41175 2.54086,-2.74383 3.6865,-3.9842 1.15617,-1.23284 2.05976,-2.5168 2.97386,-3.6023 2.02668,-2.59649 4.18416,-5.07572 5.94623,-7.92178 -0.79083,1.13362 -1.3847,1.98458 -1.87934,2.69271 -0.54426,0.66905 -0.98026,1.20428 -1.41627,1.73952 -0.87201,1.06595 -1.74403,2.13192 -3.48804,4.26534 7.99244,-11.29557 13.50264,-22.6663 17.30943,-34.14828 -1.10505,1.85377 -1.6012,2.07177 -3.97667,6.48746 l 2.57544,-5.53728 c 0.35782,-1.35161 0.61641,-3.22193 1.14413,-5.23056 0.44052,-2.0372 1.19075,-4.21723 1.58918,-6.51303 0.41645,-2.28527 0.83442,-4.58257 1.21781,-6.68142 0.44501,-2.08681 0.43599,-4.01125 0.57282,-5.49818 0.18492,0.67205 0.45555,-0.15336 0.75324,-1.66734 0.14282,-0.75775 0.31872,-1.6854 0.44653,-2.6837 0.0812,-1.00131 0.16537,-2.06877 0.24807,-3.10166 l -0.44804,1.61172 c 0.79383,-7.83608 0.39541,-16.30812 -0.40744,-24.47496 -0.62695,-4.05035 -1.02386,-8.09017 -1.88685,-11.87892 -0.37737,-1.90489 -0.74573,-3.77069 -1.10656,-5.58688 -0.44502,-1.79364 -0.88103,-3.53767 -1.299,-5.21854 -0.4781,-1.87032 -0.60589,-3.3362 -0.68107,-4.22625 -1.46588,-4.19168 -2.77841,-8.42544 -4.53296,-12.49382 0.5157,0.35782 -0.28565,-2.28377 -0.89456,-4.29692 -0.648,-1.9936 -1.15316,-3.33619 0.29017,-0.48713 -4.5059,-8.92458 -8.58781,-18.20098 -14.21078,-25.90326 -8.92158,-14.34158 -20.16453,-28.0878 -34.12874,-38.97291 -13.72968,-11.11815 -30.24378,-19.00535 -47.26154,-22.85724 0.2601,0.13532 0.50818,0.3007 0.75775,0.48112 -2.9904,-0.6014 -5.9357,-0.97726 -8.84341,-1.41327 -2.91221,-0.40594 -5.87555,-0.37586 -8.86445,-0.60139 -0.74873,-0.0451 -1.50196,-0.0902 -2.26121,-0.15034 -0.76226,-0.015 -1.53354,0.0301 -2.30783,0.0301 -1.55158,0 -3.13022,0 -4.74946,0.015 -3.23997,-0.16539 -6.62578,0.18041 -10.28372,0.24055 -1.29148,0.21049 -2.65813,0.3458 -4.04434,0.61642 -1.38168,0.31573 -2.79795,0.61642 -4.22474,0.93215 -2.84306,0.6465 -5.74927,1.11257 -8.35327,2.04622 -2.62506,0.82541 -5.04565,1.62074 -7.02721,2.35744 -1.9921,0.70062 -3.46551,1.6493 -4.33901,2.27024 -2.79496,0.93666 -5.1539,1.77109 -7.28882,2.55439 -2.10336,0.87953 -3.94511,1.81018 -5.79738,2.67768 -1.84175,0.87803 -3.6805,1.75305 -5.70566,2.71526 -1.97555,1.07498 -4.13304,2.2492 -6.66037,3.62336 1.49445,-0.31422 -0.91561,1.10956 -3.01896,2.35894 -2.10336,1.2118 -3.92706,2.47923 -1.24788,1.35915 7.28732,-2.33188 7.21064,-3.461 13.39289,-5.29372 l -0.27663,-0.15937 c 13.85597,-5.47413 28.32234,-9.14259 42.89245,-10.06422 14.55508,-0.95019 29.14625,0.89006 42.88946,5.58088 9.28241,2.80246 18.50018,7.3249 26.99629,13.14482 8.51114,5.80941 16.33669,12.84865 23.20002,20.50281 7.47374,8.16534 14.31453,17.5966 19.95254,27.31652 5.66056,9.71241 10.11383,19.68642 13.40191,28.74782 0.7788,2.16499 1.26593,4.08944 1.65983,5.94322 0.35632,1.8658 0.51118,3.68801 0.82992,5.61545 2.2567,8.50663 3.95562,18.42501 4.37058,28.63507 0.43751,10.20254 -0.42398,20.6787 -2.69722,30.06035 0.0872,-0.35331 0.16989,-0.6961 0.22402,-0.92013 -0.20598,1.27194 -0.59689,2.4642 -0.98778,3.62186 -0.3879,1.15618 -0.76527,2.28528 -1.13662,3.39334 -0.39993,1.09753 -0.69762,2.20559 -1.18023,3.23997 -0.4766,1.03438 -0.9502,2.05824 -1.42228,3.08061 -1.7365,4.14807 -4.07741,7.97589 -6.38974,12.47428 0.20897,0.0632 -0.62394,1.39823 -0.93967,2.10185 -0.22552,0.12328 -0.866,1.01935 -1.8192,2.50176 -0.46909,0.74873 -1.02387,1.63578 -1.65231,2.6416 -0.6931,0.96523 -1.46588,2.04472 -2.30632,3.21592 -0.83442,1.17421 -1.73351,2.44314 -2.68369,3.77972 -0.93517,1.35162 -2.1244,2.61454 -3.23697,4.01426 -1.14715,1.37117 -2.29429,2.82502 -3.52714,4.24731 -1.30351,1.35913 -2.63107,2.73931 -3.96014,4.12251 -5.30423,5.57035 -11.37674,10.47316 -16.29158,14.06796 -4.97347,3.50458 -8.81183,5.6801 -9.62972,6.0755 -0.9126,0.57583 -1.91541,1.06897 -2.91823,1.61173 -9.76503,4.99151 -20.56896,8.1067 -31.02709,10.00107 -10.47015,1.99661 -20.70426,2.50928 -29.95661,2.56792 -4.02629,0.61041 -8.59533,0.54877 -12.06383,0.93816 -3.25201,-0.80435 -3.96916,-0.0586 -7.94433,-0.62694 -9.71992,-3.48955 -15.50528,-4.31946 -10.60999,-2.39052 -8.26456,-1.38168 -16.20437,-4.27135 -23.16844,-6.81071 -3.23095,-1.19676 -6.50401,-2.26874 -9.68534,-3.69251 -2.73782,-1.13513 -4.12703,-2.06277 -5.18998,-3.22945 -3.37077,-1.68389 -4.51793,-2.36647 -5.66657,-3.12121 -1.10806,-0.82089 -2.22063,-1.71846 -5.50872,-3.87593 -0.32475,-0.37437 -1.52903,-1.20879 -3.16479,-2.30182 -1.61774,-1.11256 -3.82483,-2.29129 -5.81994,-3.76318 -2.01464,-1.44183 -4.16911,-2.76488 -5.71618,-4.04734 -1.57563,-1.25389 -2.76338,-2.22814 -3.14074,-2.63858 l 1.02386,0.78631 c -0.8194,-0.78481 -1.60571,-1.53655 -2.36497,-2.26573 -0.68558,-0.79233 -1.34861,-1.5606 -1.99811,-2.31233 -1.24186,-1.54406 -2.50778,-2.91373 -3.54366,-4.49237 -1.07649,-1.53655 -2.14546,-3.06107 -3.29862,-4.61415 -1.06897,-1.62073 -2.19206,-3.2956 -3.50008,-5.05015 -3.37678,-5.05014 -6.66337,-10.33484 -9.31399,-15.9969 -1.45986,-2.76338 -2.54988,-5.71017 -3.80978,-8.57729 -1.01785,-2.96184 -2.22965,-5.85902 -3.02648,-8.88099 -3.67448,-11.94055 -5.10278,-24.30808 -4.88628,-35.60816 -0.72467,-0.22852 0.19846,4.98551 -0.76075,5.27417 -0.12479,-6.71299 0.52621,-13.45003 1.59217,-20.10138 1.09152,-6.66337 2.82051,-13.17339 4.69834,-19.62477 0.93065,-2.25521 2.1229,-4.97648 2.72278,-5.92969 1.75455,-3.903 0.56079,-2.48071 1.74553,-5.38241 l 0.75474,-0.15185 c 1.33659,-4.38862 3.22945,-5.84999 4.96295,-9.73947 -0.1308,-0.32024 0.53523,-1.73651 1.24337,-3.08061 0.64799,0.26762 2.29579,-4.07741 2.7333,-3.56923 l -0.024,-0.0646 c 0.4721,-0.78182 0.7367,-1.3817 1.42078,-2.26874 0.19395,-0.39541 0.78631,-1.6057 1.58014,-3.22645 0.40143,-0.81487 0.85398,-1.7335 1.33208,-2.70323 0.53072,-0.94118 1.08851,-1.93347 1.6478,-2.92576 2.15448,-4.04282 4.82013,-7.79548 5.23808,-8.61637 l 0.61793,-0.56681 c 1.62977,-1.85227 2.00713,-2.95131 0.91411,-1.98458 l 2.12139,-2.2116 -0.20748,0.29168 2.10486,-2.19958 c 0.45104,-0.3458 1.13813,-0.54877 0.72768,0.25859 1.07348,-1.35011 2.386,-2.77841 3.71507,-3.87143 -3.79926,2.92274 -8.41942,6.76561 -12.17809,10.2281 1.0885,-1.81619 3.97366,-4.28639 5.45308,-5.98682 1.05393,-0.85697 2.67918,-2.13492 4.45929,-3.52863 1.75004,-1.42679 3.64741,-2.97086 5.42,-4.18416 0.69009,-0.63296 0.6916,-1.6463 2.54538,-2.76337 1.10505,-0.28266 1.89737,-1.49294 3.54668,-2.2552 -0.73069,0.72166 -1.514,1.35161 -2.32587,1.95149 -0.7818,0.63597 -1.56962,1.27345 -2.36947,1.92295 0.33678,0.12779 1.36065,-0.59538 2.4687,-1.46439 1.15617,-0.80736 2.41607,-1.74251 3.1182,-2.15597 0.49012,-0.62094 3.76769,-2.84757 5.8094,-4.28489 -0.57583,1.09904 1.89587,-0.77429 3.30011,-1.305 1.41778,-0.88254 2.27926,-1.53505 1.5606,-1.40876 0.0676,-0.94719 -5.83647,3.2896 -4.25332,1.41176 0.69161,-0.0691 3.3783,-2.00863 4.95243,-2.85208 -0.16237,-0.32174 -1.19977,0.36684 -0.36684,-0.50216 1.76958,-0.91411 3.39783,-2.3409 4.56904,-2.58146 -0.27663,0.27214 -1.01785,0.62545 -1.53053,0.90509 1.13662,-0.62694 -1.63879,1.63427 -4.2939,3.77972 -2.54838,2.32286 -4.97799,4.54198 -3.65644,3.5527 -0.42097,0.14734 2.23265,-2.42509 5.08322,-4.60663 2.83855,-2.18454 5.65004,-4.32097 4.89529,-3.903 -1.46137,0.62844 0.68559,-1.13663 -0.80435,-0.4345 l -1.37717,1.28696 c -2.01014,0.99079 -3.13323,0.9051 -2.56642,0.29769 1.66283,-0.9096 -0.38339,0.9502 -2.45517,2.79044 -1.99059,1.97556 -4.0278,3.91352 -2.79646,2.89267 l -1.17871,0.5638 c 1.01634,-0.90509 3.89248,-3.14225 5.32228,-3.47151 -0.17441,-0.30971 1.34861,-1.32004 2.60551,-2.18454 l 0.49765,-0.21348 c 1.27494,-0.93366 3.22344,-1.9485 2.11538,-1.85679 -3.99472,2.30933 -3.13474,0.7788 -2.21461,-0.82391 0.91411,-1.60119 1.89888,-3.27605 -2.15448,-1.08549 3.73462,-1.2118 -0.74571,1.32454 -4.1646,3.4294 -0.46607,-0.015 -2.17402,0.63296 -4.72691,2.05675 -2.07779,1.4283 -1.07948,1.04791 -1.36966,1.4749 -1.26743,0.61192 -3.45948,2.13794 -3.43392,1.57864 -1.27644,1.57865 -2.7303,1.60421 -4.49236,3.19487 -1.44934,1.51851 0.24055,0.0767 -0.73821,1.2103 -1.20879,0.98327 -2.66114,2.16349 -4.05335,3.2941 -1.39522,1.1261 -2.61152,2.33489 -3.56022,3.13774 -0.9577,0.37436 -3.58276,1.92143 -2.44464,0.009 3.52564,-3.23547 -0.63746,1.95752 2.87013,-1.55459 -2.17101,0.80285 3.02046,-3.19938 3.34822,-4.20821 -0.72918,0.36986 -1.74702,1.0374 -2.75887,1.92294 -0.9998,0.89757 -2.05674,1.93947 -2.99641,2.90921 l 0.4721,-0.28716 c -0.80136,0.87953 -2.10035,2.10034 -3.32417,3.42941 -1.23285,1.32005 -2.53335,2.60702 -3.58879,3.38882 0.18493,-0.65401 -0.75774,0.0135 0.38489,-1.32155 l -2.28527,2.37398 c -0.19394,0.3879 -0.3909,0.7833 0.26912,0.1007 -0.81037,1.35011 -1.89888,2.45366 -2.80548,3.25501 -0.12027,0.0166 -0.81337,0.92162 -1.7771,2.25971 -0.94116,1.35612 -2.04471,3.22644 -3.1678,5.03061 -2.24317,3.62035 -4.01576,7.37 -4.00674,7.06179 -1.30051,1.95451 -1.93798,2.24016 -2.81299,4.38412 0.0285,0.0857 0.68107,-1.12159 1.62524,-2.9438 1.02837,-1.77409 2.39804,-4.13604 3.7226,-6.42132 2.82651,-4.46229 5.60643,-8.57277 4.69984,-7.29031 -0.75024,0.69159 -4.5961,6.23939 -7.76542,12.05932 -1.65081,2.86862 -3.01445,5.87405 -4.23677,8.10369 -1.06897,2.31384 -1.87182,3.93609 -2.17703,4.19318 -0.7818,1.55759 -1.61923,3.48504 -1.1261,3.26403 -1.32606,2.62506 -0.22401,-1.07648 -1.35011,0.71565 0.0285,0.0662 0.22101,-0.0872 -0.0586,0.52171 l -1.19675,1.68388 c -1.4283,4.37058 -4.29542,10.51074 -5.0216,15.31884 0.0782,-1.42529 -0.0767,-3.13925 0.58636,-6.20782 l 0.35632,-0.45254 c 0.0586,-0.44803 0.84796,-2.88816 0.51269,-2.93929 -0.61643,1.35312 -1.1682,2.62206 -1.58917,3.95563 -0.3924,1.34109 -0.72768,2.72428 -1.03739,4.26083 -0.2586,0.52321 -0.54727,1.13962 -0.76978,1.54406 0.0451,0 0.0947,-0.0346 0.13982,-0.009 -0.50516,0.91561 -0.50666,0.80435 -0.52019,0.41195 -0.009,-0.0541 -0.0166,-0.11877 -0.008,-0.22702 -0.76527,0.74872 -1.3035,3.65042 -1.94849,6.96105 -0.49615,3.34523 -1.05544,7.11291 -1.67035,9.75902 -0.0992,1.60421 0.13982,0.17591 0.0346,2.17101 -0.64798,2.70474 -1.01333,5.02159 -1.3892,7.37752 -0.42999,2.35142 -0.63446,4.75998 -0.87802,7.66769 0.33828,1.87483 0.49915,2.01165 1.03889,-0.20446 -0.1308,1.45385 -0.2165,2.90921 -0.22552,4.36757 -1.15015,-4.01727 -1.00883,8.236 -2.16048,3.84137 -0.3037,1.3065 -0.10678,3.97967 0.19846,6.4589 0.33978,0.22702 0.67656,0.59537 1.05844,3.69251 0.16238,4.36006 0.0572,3.32868 0.28416,6.94602 -0.2165,0.90059 -0.58335,-0.38789 -0.84796,-0.19243 1.42529,5.44556 -0.0451,4.98851 1.24637,10.17246 0.71415,3.26404 2.81901,9.53049 3.41137,9.49892 1.43131,4.23527 1.01785,4.39164 0.36685,4.14807"
       style="display:inline;fill:#c9d5a2;fill-opacity:1;fill-rule:nonzero;stroke:none"
       id="path180"
       inkscape:connector-curvature="0" />
    <text
       xml:space="preserve"
       style="font-style:normal;font-variant:normal;font-weight:normal;font-stretch:normal;font-size:90px;line-height:257.99999237%;font-family:'Cedarville Cursive';-inkscape-font-specification:'Cedarville Cursive';letter-spacing:0px;word-spacing:0px;fill:#000000;fill-opacity:1;stroke:none;stroke-width:1px;stroke-linecap:butt;stroke-linejoin:miter;stroke-opacity:1"
       x="65.001343"
       y="392.03149"
       id="text5594"
       sodipodi:linespacing="257.99999%"><tspan
         sodipodi:role="line"
         id="tspan5596"
         x="65.001343"
         y="392.03149">Earthling Emma</tspan></text>
    <g
       id="g17575"
       transform="matrix(1.0115938,0,0,1.0115938,96.004112,-5.5507121)">
      <path
         inkscape:connector-curvature="0"
         style="fill:none"
         d="m 217.882,111.722 -23.663,40.764 2.002,-41.457 C 198.135,81.736 186.885,50.307 171.347,22.287 L 207.803,7.503 c 15.431,33.405 18.79,69.598 10.079,104.219 z"
         id="path17577" />
      <path
         inkscape:connector-curvature="0"
         style="fill:none;fill-opacity:1"
         d="m 369.369,341.352 c 0,86.86 -73.02,157.28 -163.1,157.28 -90.07,0 -163.1,-70.42 -163.1,-157.28 0,-25.35 15.77,-58.49 32.11,-86.02 16.08,-27.12 30.38,-55.23 41.62,-84.53 6.72,-17.51 18.81,-32.51 34.35,-43.14 15.54,-10.62 34.53,-16.86 55.02,-16.86 2.36,0 4.7,0.08 7.02,0.25 37.94,2.66 69.69,26.74 82.36,59.75 11.24,29.3 25.53,57.41 41.62,84.53 5.9,9.94 11.72,20.61 16.75,31.38 8.91,19.06 15.35,38.44 15.35,54.64 z"
         id="path17579" />
      <path
         inkscape:connector-curvature="0"
         style="fill:none"
         d="m 354.019,286.712 c -34.86,-4.86 -68.43,-20.93 -94.86,-48.13 -34.3,-35.29 -49.53,-82.05 -45.87,-127.53 37.94,2.66 69.69,26.74 82.36,59.75 11.24,29.3 25.53,57.41 41.62,84.53 5.9,9.94 11.72,20.61 16.75,31.38 z"
         id="path17583" />
      <path
         inkscape:connector-curvature="0"
         style="fill:none;fill-opacity:1"
         d="m 291.825,227.488 c 44.793,30.429 99.264,35.713 146.715,19.041 8.006,-2.8 15.805,-6.235 23.328,-10.271 C 468.7,177.467 443.407,116.973 391.058,81.411 338.709,45.849 273.161,44.626 221.026,72.649 c -0.2,1.737 -0.379,3.479 -0.512,5.222 -4.804,57.132 20.51,115.107 71.311,149.617 z"
         id="path17585" />
    </g>
    <g
       id="g17589"
       transform="matrix(0.97928947,0.49393552,-0.44331553,1.0911097,238.06616,-163.91104)">
      <path
         style="stroke:#000000;stroke-width:2.26408958;stroke-miterlimit:4;stroke-dasharray:none;stroke-opacity:1"
         inkscape:connector-curvature="0"
         id="path17603"
         d="m 272.20897,234.27618 c 0,-7e-5 0.18906,1.79964 -6.95547,2.27354 l 2.60754,2.74567 c 1.94507,4.49546 2.21123,10.43773 2.11908,15.50057 -6.60276,0.87999 -12.44586,6.46193 -14.34635,13.68903 -2.40172,7.03517 -6.6013,12.68446 -9.72894,19.30711 -0.64341,1.59181 -0.24314,0.0146 -0.4294,1.75008 0.3252,0.69713 -0.0203,3.54 -0.0317,2.76875 2.52123,-7.0714 8.43021,-13.84425 11.08372,-20.84635 1.47401,-2.51156 1.53697,-8.70067 4.56283,-13.90639 3.93211,-4.80235 9.26955,-2.79893 14.03003,-2.07883 0,0 2.53046,7.77349 3.00806,11.24979 0.9779,7.11781 8.09171,13.17224 15.02098,16.02774 1.39171,0.44147 2.85865,1.52917 3.64068,2.72067 2.56819,5.27131 3.85177,11.92698 3.26547,18.12786 -0.75569,10.93785 -7.0728,20.81767 -15.86284,25.16744 -9.46069,4.84756 -23.19588,6.66425 -30.48988,-3.12159 -8.23568,-6.205 -13.49354,-20.4672 -10.77125,-25.78222 -0.008,4.55225 0.6553,2.09621 3.1552,13.94934 1.38176,6.55151 6.53255,11.67103 11.54834,14.83932 9.62221,6.25223 21.9145,6.30769 31.04726,-0.88376 3.65402,-2.80735 7.90005,-5.04708 8.90035,-11.08921 0.98337,-5.93993 2.95409,-9.00206 2.73867,-14.5163 -0.39055,-6.04001 -1.59776,-14.30204 -4.15146,-19.4998 7.94216,2.16734 16.76736,2.16855 23.26287,-2.05324 0.56076,-1.59242 -1.87258,-3.29647 -1.7615,-4.96921 -0.13506,-4.49301 0.13514,-6.81233 -1.72629,-10.82263 -0.73698,-0.42507 -1.59062,-1.4678 -1.01045,-0.87511 2.64384,4.30252 2.73671,11.69774 4.68972,17.59054 -3.07028,1.4324 -6.04841,3.86218 -9.55825,4.09046 -8.8503,0.57561 -19.71025,-1.41025 -25.68124,-6.25953 -7.89686,-6.19349 -9.74007,-18.91488 -9.03817,-29.81971 -0.24175,-1.38681 0.85621,-0.29325 1.47404,-0.0732 2.3006,1.26627 4.72676,2.46401 6.84019,4.01718 1.35653,3.73874 2.38989,7.68322 3.9481,11.29308 0.6475,0.36615 -0.58574,-2.11587 -1.06072,-2.6867 -1.02741,-3.05162 -0.25525,-4.67349 -1.28293,-7.72501 3.2368,2.14351 6.42094,4.39769 9.45704,6.8959 0.53125,2.39296 0.59917,4.96301 1.3803,7.25263 0.69474,0.48394 0.61014,-0.44982 0.19884,-1.11985 -0.26682,-1.58996 0.13329,-3.35432 -0.13344,-4.9443 4.50897,2.63892 8.98312,7.66319 10.18364,10.42178 0.75028,0.13459 -0.51391,-2.40389 -1.20052,-2.75859 -2.90682,-3.67488 -4.69246,-5.67482 -8.1315,-8.70122 1.7671,-0.49122 3.67505,-0.10375 5.3628,-0.84414 0.44586,-0.76943 -1.4625,-0.72133 -2.07912,-0.34834 -1.99754,0.12891 -3.95177,0.18466 -5.93489,-0.0263 -2.88424,-2.37395 -5.40887,-4.40673 -8.47117,-6.47147 2.724,-0.3907 7.47162,-3.49066 8.30681,-2.3131 0.50118,-0.60456 0.0976,-0.42025 -0.5445,-0.0658 -3.17958,0.19803 -7.83796,1.55025 -11.01204,1.53791 -2.54642,-1.57507 -3.70423,-3.8663 -6.3382,-5.22672 8.73017,-4.81048 19.64366,-3.9989 27.67443,2.23283 3.05752,2.26853 6.3905,7.1531 8.58357,10.42015 0.80027,0.25283 -3.01116,-6.69767 -3.01116,-6.69767 -11.96118,-9.69247 -10.94298,-8.84006 -23.01112,-9.44076 l -10.79643,2.27021 c -0.29609,-4.24737 -1.0176,-8.52323 -2.87063,-12.23261 -0.2183,-0.17058 -0.44934,-0.0566 -0.66903,0.0601 z m 0.18906,1.79959 c 0,0 3.78585,5.90229 2.97585,9.89857 -0.61981,1.65003 -1.18487,4.71844 -1.29578,6.44156 0.0303,0.71342 0.32036,2.03477 -0.4534,2.26994 -0.80612,-0.0657 -2.89187,-0.44294 -3.70644,-0.39994 -0.27106,-2.81012 -0.23382,-8.6601 -0.23382,-8.6601 -0.65121,-2.58975 -1.43413,-5.02191 -2.59846,-7.52549 1.7271,-0.79782 3.45417,-1.59575 5.18124,-2.39364 l 0.13081,0.36915 z"
         sodipodi:nodetypes="cccccccccccsccccccsccscccccccscccccccccccccccccccccccccccccccccccscccc" />
    </g>
  </g>
</svg>
